<svg id="Layer_1" data-name="Layer 1" xmlns="http://www.w3.org/2000/svg" xmlns:xlink="http://www.w3.org/1999/xlink" viewBox="0 0 282.27 282.28"><defs><style>.cls-1{fill:url(#radial-gradient);}.cls-2{fill:url(#radial-gradient-2);}.cls-3{fill:url(#radial-gradient-3);}</style><radialGradient id="radial-gradient" cx="306.34" cy="396.21" r="141.14" gradientUnits="userSpaceOnUse"><stop offset="0" stop-color="#757575"/><stop offset="1" stop-color="#333"/></radialGradient><radialGradient id="radial-gradient-2" cx="306.34" cy="396.21" r="66.02" xlink:href="#radial-gradient"/><radialGradient id="radial-gradient-3" cx="306.49" cy="396.21" r="31.65" xlink:href="#radial-gradient"/></defs><g id="Template"><path class="cls-1" d="M434.15,408.48a27,27,0,0,1,12.07-36.18c.42-.21.84-.41,1.26-.59a142.73,142.73,0,0,0-6.55-24.62,27,27,0,0,1-25.36-41.69c.23-.34.46-.68.71-1a143.9,143.9,0,0,0-18-18.06,27,27,0,0,1-42.65-23.54c0-.37.05-.73.09-1.09A141.92,141.92,0,0,0,331,255.09a27,27,0,0,1-48.63.8c-.14-.27-.27-.54-.39-.82a142.23,142.23,0,0,0-24.77,6.61,27,27,0,0,1-41.74,24.87l-.63-.43a144.82,144.82,0,0,0-18.18,18.13,27,27,0,0,1-23.8,42.29c-.25,0-.5,0-.74-.06a141.87,141.87,0,0,0-6.7,24.8,27,27,0,0,1,.54,48.52l-.7.34A141.84,141.84,0,0,0,171.74,445a27,27,0,0,1,24.83,41.75c-.16.25-.33.49-.51.74a145.54,145.54,0,0,0,18,18.2,27,27,0,0,1,42.47,23.66c0,.37-.05.74-.09,1.1a141.3,141.3,0,0,0,24.66,6.73,27,27,0,0,1,48.69-.93c.19.38.37.76.54,1.15A141.22,141.22,0,0,0,355,530.87a27,27,0,0,1,41.7-25.32c.38.25.76.51,1.12.78a143.93,143.93,0,0,0,18.08-17.95,27,27,0,0,1,23.4-42.82c.49,0,1,.07,1.44.13a140.67,140.67,0,0,0,6.63-24.6A26.81,26.81,0,0,1,434.15,408.48ZM306.39,463.29a67.12,67.12,0,1,1,67.11-67.12A67.12,67.12,0,0,1,306.39,463.29Z" transform="translate(-165.21 -255.07)"/><path class="cls-2" d="M370.82,416.75a24.27,24.27,0,0,1-.89-41.91l.52-.3a67.18,67.18,0,0,0-14.23-24,24.25,24.25,0,0,1-37-20v-.62a67.66,67.66,0,0,0-27.91.51,24.24,24.24,0,0,1-35.82,21.84,1,1,0,0,1-.17-.1,67.8,67.8,0,0,0-13.47,24.46,24.23,24.23,0,0,1,.78,41.59A67.31,67.31,0,0,0,257,442.14a24.26,24.26,0,0,1,36.14,20.27,67.94,67.94,0,0,0,27.91-.26,24.24,24.24,0,0,1,35.84-21.23l.13.08A67.38,67.38,0,0,0,370.82,416.75Zm-63.53,11.1a31.65,31.65,0,1,1,30.84-32.43A31.64,31.64,0,0,1,307.29,427.85Z" transform="translate(-165.21 -255.07)"/><path class="cls-3" d="M338.13,395.42a31.64,31.64,0,1,1-32.44-30.85A31.63,31.63,0,0,1,338.13,395.42Z" transform="translate(-165.21 -255.07)"/><path class="cls-3" d="M307.29,427.85a31.65,31.65,0,1,1,30.84-32.43A31.64,31.64,0,0,1,307.29,427.85Z" transform="translate(-165.21 -255.07)"/></g></svg>