<svg id="Layer_1" data-name="Layer 1" xmlns="http://www.w3.org/2000/svg" xmlns:xlink="http://www.w3.org/1999/xlink" viewBox="0 0 143.48 150.25"><defs><style>.cls-1{fill:url(#radial-gradient);}.cls-2{fill:url(#radial-gradient-2);}</style><radialGradient id="radial-gradient" cx="306" cy="396" r="73.45" gradientUnits="userSpaceOnUse"><stop offset="0" stop-color="#757575"/><stop offset="1" stop-color="#333"/></radialGradient><radialGradient id="radial-gradient-2" cx="306.17" r="35.21" xlink:href="#radial-gradient"/></defs><g id="Template"><path class="cls-1" d="M377.74,418.85a27,27,0,0,1-1-46.62l.58-.34a74.89,74.89,0,0,0-15.84-26.71,27,27,0,0,1-41.15-22.27v-.69a75.4,75.4,0,0,0-31,.57,27,27,0,0,1-39.86,24.3l-.19-.11a75.28,75.28,0,0,0-15,27.21,27,27,0,0,1,.86,46.28,74.85,74.85,0,0,0,16,26.63,27,27,0,0,1,40.21,22.55,75.69,75.69,0,0,0,31.06-.28,27,27,0,0,1,39.87-23.63.67.67,0,0,1,.14.09A74.8,74.8,0,0,0,377.74,418.85ZM307.06,431.2a35.21,35.21,0,1,1,34.31-36.08A35.21,35.21,0,0,1,307.06,431.2Z" transform="translate(-234.26 -320.88)"/><path class="cls-2" d="M341.37,395.12a35.21,35.21,0,1,1-36.09-34.32A35.2,35.2,0,0,1,341.37,395.12Z" transform="translate(-234.26 -320.88)"/></g></svg>